<?xml version="1.0" standalone="no"?>
<!DOCTYPE svg PUBLIC "-//W3C//DTD SVG 1.1//EN" "http://www.w3.org/Graphics/SVG/1.1/DTD/svg11.dtd" >
<svg xmlns="http://www.w3.org/2000/svg">
<metadata>
This is a custom SVG webfont generated by Font Squirrel.
</metadata>
<defs>
<font id="webfonterLZbVFw" horiz-adv-x="1229" >
<font-face units-per-em="2048" ascent="1638" descent="-410" />
<missing-glyph horiz-adv-x="597" />
<glyph unicode=" "  horiz-adv-x="597" />
<glyph unicode="&#x09;" horiz-adv-x="597" />
<glyph unicode="&#xa0;" horiz-adv-x="597" />
<glyph unicode="!" horiz-adv-x="512" d="M154 -15v203h204v-203h-204zM324 324h-136l-34 1058h204z" />
<glyph unicode="&#x22;" horiz-adv-x="768" d="M461 1092v69h68v17h-119v204h204v-290h-153zM205 1092v69h68v17h-119v204h204v-290h-153z" />
<glyph unicode="#" horiz-adv-x="1126" d="M500 1041l-10 -136h136l11 136h-137zM782 734l-16 -171h-170l15 171h-137l-15 -171h-171l16 171h-150v171h165l10 136h-175v171h191l15 170h171l-16 -170h137l15 170h171l-15 -170h150v-171h-166l-10 -136h176v-171h-191z" />
<glyph unicode="$" horiz-adv-x="947" d="M423 1077q-97 -39 -97 -138q0 -92 97 -144v282zM623 428q0 89 -99 140v-280q99 40 99 140zM628 939q-15 114 -104 143v-329q136 -52 196 -115q74 -77 74 -210q0 -115 -77 -207q-77 -90 -193 -110v-126h-101v124q-106 16 -179 91q-73 74 -94 182l167 46q17 -117 106 -145 v328q-137 52 -196 116q-73 79 -73 212q0 116 77 205q79 91 192 110v128h101v-126q105 -15 179 -90q75 -76 94 -185z" />
<glyph unicode="%" horiz-adv-x="1809" d="M1536 358q0 70 -51 120q-50 51 -120 51q-71 0 -120 -51q-50 -50 -50 -120t50 -120t120 -50t120 50q51 49 51 120zM614 1007q0 70 -50 120q-50 51 -120 51t-121 -51q-50 -50 -50 -120q0 -69 50 -121q52 -50 121 -50q70 0 120 50q50 52 50 121zM570 -15h-242l911 1397h242z M1741 358q0 -154 -111 -263q-112 -110 -265 -110q-152 0 -264 110q-111 109 -111 263t111 265t264 111q154 0 265 -111t111 -265zM819 1007q0 -154 -111 -265t-264 -111q-154 0 -265 111t-111 265t111 264q111 111 265 111q153 0 264 -111q111 -110 111 -264z" />
<glyph unicode="&#x26;" horiz-adv-x="1178" d="M734 649h-137q-97 0 -168 -71t-71 -168q0 -94 48 -161q52 -78 140 -78q74 0 131 48q57 49 57 122v308zM939 649v-308q0 -157 -117 -265t-276 -108q-172 0 -287 136q-105 130 -105 306q0 232 201 348q-133 97 -133 266q0 155 110 265t265 110q131 0 232 -83t135 -212 l-198 -53q-39 144 -169 144q-71 0 -120 -51q-50 -50 -50 -120q0 -69 50 -121q50 -50 120 -50h427v-204h-85z" />
<glyph unicode="'" horiz-adv-x="512" d="M205 1092v69h68v17h-119v204h204v-290h-153z" />
<glyph unicode="(" horiz-adv-x="717" d="M365 -186q-119 229 -165 420q-23 96 -34.5 207.5t-11.5 241.5q0 129 11.5 240.5t34.5 207.5q47 193 165 422h208q-120 -236 -167 -420q-48 -194 -48 -450q0 -258 48 -451q24 -94 65.5 -197.5t101.5 -220.5h-208z" />
<glyph unicode=")" horiz-adv-x="717" d="M563 683q0 -256 -47 -449q-46 -189 -164 -420h-209q120 233 168 418q23 97 35 209t12 242q0 254 -47 450q-48 186 -168 420h209q118 -231 164 -422q47 -193 47 -448z" />
<glyph unicode="*" horiz-adv-x="922" d="M768 913q0 -36 -24.5 -60.5t-60.5 -24.5q-16 0 -40 8l-138 130l41 -184q-10 -82 -85 -82q-73 0 -86 82l41 184l-136 -130q-22 -8 -41 -8q-17 0 -32.5 7t-27 18.5t-18.5 27t-7 32.5q0 41 39 73l181 55l-181 55q-39 30 -39 73q0 36 24.5 60.5t60.5 24.5q15 0 39 -8 l138 -130l-41 184q10 82 86 82q72 0 85 -82l-41 -184l137 130q21 8 41 8q17 0 32.5 -7t27 -18.5t18.5 -27t7 -32.5q0 -42 -39 -73l-181 -55l181 -55q39 -30 39 -73z" />
<glyph unicode="+" horiz-adv-x="853" d="M512 597v-187h-171v187h-187v171h187v188h171v-188h188v-171h-188z" />
<glyph unicode="," horiz-adv-x="512" d="M205 -101v69h68v17h-119v203h204v-289h-153z" />
<glyph unicode="-" horiz-adv-x="853" d="M154 597v171h546v-171h-546z" />
<glyph unicode="." horiz-adv-x="512" d="M154 -15v203h204v-203h-204z" />
<glyph unicode="/" horiz-adv-x="744" d="M171 -169l-191 70l593 1635l193 -70z" />
<glyph unicode="0" horiz-adv-x="1195" d="M836 956q0 97 -71 168t-168 71t-168 -71t-71 -168v-546q0 -98 71 -169q70 -70 168 -70t168 70q71 71 71 169v546zM1041 410q0 -182 -131 -313q-131 -129 -313 -129q-183 0 -313 129q-130 130 -130 313v546q0 182 130 312q131 131 313 131t313 -131t131 -312v-546z" />
<glyph unicode="1" horiz-adv-x="512" d="M154 -15v1397h204v-1397h-204z" />
<glyph unicode="2" horiz-adv-x="1072" d="M961 1002q0 -203 -152 -350l-143 -106l-144 -107q-157 -118 -164 -251h598v-203h-802v186q0 209 155 358l290 212q155 119 155 261q0 80 -59 136q-59 57 -139 57q-76 0 -127 -54q-50 -54 -60 -132l-202 51q28 147 135 243q106 96 254 96q166 0 285 -116 q120 -116 120 -281z" />
<glyph unicode="3" horiz-adv-x="1138" d="M985 410q0 -182 -131 -313q-131 -129 -313 -129q-155 0 -275 96q-119 97 -158 250l197 51q22 -84 87 -140q64 -54 149 -54q98 0 168 70q71 71 71 169q0 97 -71 168t-168 71h-102v204h102q70 0 120 50q51 51 51 121t-51 120q-50 51 -120 51q-132 0 -169 -144l-198 53 q34 129 135 212t232 83q155 0 265 -110t110 -265q0 -169 -133 -266q202 -115 202 -348z" />
<glyph unicode="4" horiz-adv-x="1007" d="M649 -15v339h-671l338 934l193 -70l-241 -659h381v853h204v-1397h-204z" />
<glyph unicode="5" horiz-adv-x="1145" d="M1034 444q0 -194 -124 -333q-131 -143 -319 -143q-160 0 -275 93q-117 96 -157 250l196 53q24 -88 86 -140.5t150 -52.5q104 0 174 85q64 79 64 188q0 108 -64 187q-71 86 -174 86q-44 0 -82 -14t-68 -39t-52 -60.5t-34 -77.5l-203 56l63 800h734v-204h-545l-27 -331 q98 76 243 76q180 0 302 -152q112 -140 112 -327z" />
<glyph unicode="6" horiz-adv-x="1109" d="M836 410q0 99 -70 169t-169 70t-169 -70t-70 -169q0 -98 71 -169q70 -70 168 -70t168 70q71 71 71 169zM1041 410q0 -182 -131 -313q-131 -129 -313 -129q-183 0 -313 129q-130 130 -130 313q0 57 15 116l229 856h213l-154 -570q76 40 159 40q174 0 299 -134 q126 -134 126 -308z" />
<glyph unicode="7" horiz-adv-x="939" d="M312 -15h-227l558 1193h-575v204h898z" />
<glyph unicode="8" horiz-adv-x="1195" d="M768 1024q0 70 -51 120q-50 51 -120 51q-71 0 -120 -51q-50 -50 -50 -120q0 -69 50 -121q50 -50 120 -50t120 50q51 51 51 121zM836 410q0 97 -71 168t-168 71q-99 0 -169 -70t-70 -169t70 -169t169 -70q98 0 168 70q71 71 71 169zM1041 410q0 -182 -131 -313 q-131 -129 -313 -129q-183 0 -313 129q-130 130 -130 313q0 232 201 348q-133 97 -133 266q0 155 110 265t265 110q156 0 266 -110t110 -265q0 -169 -133 -266q201 -116 201 -348z" />
<glyph unicode="9" horiz-adv-x="1109" d="M751 956q0 97 -71 168t-168 71t-168 -71t-71 -168q0 -99 70 -169t169 -70t169 70t70 169zM956 956q0 -59 -16 -116l-228 -855h-214l154 568q-77 -39 -159 -39q-174 0 -300 133q-125 134 -125 309q0 182 130 312q131 131 314 131q182 0 313 -131t131 -312z" />
<glyph unicode=":" horiz-adv-x="512" d="M154 -15v203h204v-203h-204zM154 751v205h204v-205h-204z" />
<glyph unicode=";" horiz-adv-x="512" d="M205 -101v69h68v17h-119v203h204v-289h-153zM154 751v205h204v-205h-204z" />
<glyph unicode="&#x3c;" horiz-adv-x="657" d="M331 324l-179 359l179 358h183l-179 -358l179 -359h-183z" />
<glyph unicode="=" horiz-adv-x="939" d="M154 478v171h631v-171h-631zM154 717v170h631v-170h-631z" />
<glyph unicode="&#x3e;" horiz-adv-x="657" d="M326 324h-183l180 359l-180 358h183l179 -358z" />
<glyph unicode="?" horiz-adv-x="1097" d="M154 -15v203h204v-203h-204zM944 1002q0 -154 -80 -249q-69 -81 -224 -144q-51 -18 -102 -39q-60 -25 -96 -49q-56 -41 -72 -88q-12 -32 -12 -98v-11h-204v41q0 207 151 313l140 64l140 64q152 71 152 196q0 80 -59 136q-59 57 -139 57q-78 0 -128 -53q-48 -51 -59 -133 l-202 51q28 148 135 243q106 96 254 96q166 0 285 -116q120 -116 120 -281z" />
<glyph unicode="@" horiz-adv-x="1570" d="M923 712q0 25 -9 47.5t-25 38.5t-38 25.5t-47 9.5q-70 0 -126 -56q-55 -55 -55 -125q0 -54 33.5 -87t87.5 -33q68 0 123 55q56 56 56 125zM1297 683q0 190 -128 336l-31 -154l-32 -153q-43 -212 -43 -297q0 -51 34 -51q110 0 161 112q39 84 39 207zM1502 683 q0 -220 -103 -359q-116 -158 -326 -158q-79 0 -141 59q-60 60 -63 140q-78 -37 -162 -37q-127 0 -209 84q-82 85 -82 211q0 159 125 287t285 128q83 0 150 -40l7 29h178q-155 168 -376 168q-210 0 -361 -151t-151 -361q0 -216 156 -364q155 -148 373 -148v-203 q-300 0 -517 207t-217 508q0 292 212 504t505 212t505 -212t212 -504z" />
<glyph unicode="A" d="M614 1138l-254 -694h507zM1034 -15l-94 254h-653l-94 -254h-215l507 1397h259l509 -1397h-219z" />
<glyph unicode="B" horiz-adv-x="1451" d="M1058 981q0 81 -58 139t-138 58h-504v-393h504q80 0 138 58t58 138zM1092 384q0 80 -58 138t-138 58h-538v-392h538q79 0 137 58q59 59 59 138zM1297 384q0 -163 -119 -282q-119 -117 -282 -117h-742v1397h708q163 0 282 -119t119 -282q0 -182 -145 -288 q179 -104 179 -309z" />
<glyph unicode="C" horiz-adv-x="1459" d="M1225 944q-75 114 -191 182q-116 69 -249 69q-210 0 -361 -151t-151 -361t151 -361t361 -151q132 0 251 70q114 66 188 179l172 -113q-101 -156 -265 -248q-161 -91 -346 -91q-294 0 -505 210q-212 212 -212 505q0 292 212 504t505 212q183 0 350 -93q159 -93 263 -251z " />
<glyph unicode="D" horiz-adv-x="1451" d="M1178 683q0 203 -146 349t-349 146h-325v-990h325q203 0 349 146t146 349zM1382 683q0 -288 -206 -494q-206 -204 -493 -204h-529v1397h529q287 0 493 -206t206 -493z" />
<glyph unicode="E" horiz-adv-x="1195" d="M154 -15v1397h887v-204h-683v-376h512v-205h-512v-409h683v-203h-887z" />
<glyph unicode="F" horiz-adv-x="1109" d="M358 1178v-376h512v-205h-512v-612h-204v1397h887v-204h-683z" />
<glyph unicode="G" horiz-adv-x="1545" d="M1225 944q-74 113 -189 181q-119 70 -251 70q-210 0 -361 -151t-151 -361t151 -361t361 -151q241 0 399 194v215h-416v205h621v-800h-205v128q-151 -145 -399 -145q-294 0 -505 210q-212 212 -212 505q0 292 212 504t505 212q183 0 350 -93q159 -93 263 -251z" />
<glyph unicode="H" horiz-adv-x="1365" d="M1007 -15v595h-649v-595h-204v1397h204v-597h649v597h205v-1397h-205z" />
<glyph unicode="I" horiz-adv-x="512" d="M154 -15v1397h204v-1397h-204z" />
<glyph unicode="J" horiz-adv-x="896" d="M828 367q0 -166 -118 -283q-119 -116 -283 -116q-170 0 -286 122q-115 121 -115 294h204q0 -88 55 -150q55 -63 142 -63q80 0 138 58t58 138v1015h205v-1015z" />
<glyph unicode="K" horiz-adv-x="1237" d="M947 -15l-556 553l-33 -33v-520h-204v1397h204v-588l589 588h289l-700 -699l700 -698h-289z" />
<glyph unicode="L" horiz-adv-x="1024" d="M154 -15v1397h204v-1194h683v-203h-887z" />
<glyph unicode="M" horiz-adv-x="1707" d="M1348 -15v889l-389 -889h-211l-390 889v-889h-204v1397h206l493 -1126l494 1126h206v-1397h-205z" />
<glyph unicode="N" horiz-adv-x="1365" d="M1015 -15l-657 1008v-1008h-204v1397h196l657 -1010v1010h205v-1397h-197z" />
<glyph unicode="O" horiz-adv-x="1570" d="M1297 683q0 210 -151 361t-361 151t-361 -151t-151 -361t151 -361t361 -151t361 151t151 361zM1502 683q0 -293 -212 -505q-212 -210 -505 -210q-294 0 -505 210q-212 212 -212 505q0 292 212 504t505 212t505 -212t212 -504z" />
<glyph unicode="P" horiz-adv-x="1365" d="M1092 981q0 81 -58 139t-138 58h-538v-393h538q80 0 138 58t58 138zM1297 981q0 -165 -118 -283q-117 -118 -283 -118h-538v-595h-204v1397h742q163 0 282 -119t119 -282z" />
<glyph unicode="Q" horiz-adv-x="1570" d="M1297 683q0 210 -151 361t-361 151t-361 -151t-151 -361t151 -361t361 -151q153 0 280 85l-253 254l145 145l255 -252q85 127 85 280zM1468 -142l-255 253q-193 -143 -428 -143q-294 0 -505 210q-212 212 -212 505q0 292 212 504t505 212t505 -212t212 -504 q0 -236 -145 -429l254 -254z" />
<glyph unicode="R" horiz-adv-x="1365" d="M1092 981q0 80 -59 139q-58 58 -137 58h-538v-393h538q80 0 138 58t58 138zM1072 -15l-343 595h-371v-595h-204v1397h742q163 0 282 -119t119 -282q0 -147 -97 -259q-96 -113 -239 -137l348 -600h-237z" />
<glyph unicode="S" horiz-adv-x="1097" d="M746 1009q-11 81 -60 133q-50 53 -128 53q-81 0 -139 -57q-59 -56 -59 -136q0 -124 152 -195l280 -129q152 -105 152 -313q0 -165 -119 -281t-284 -116q-149 0 -255 94q-108 95 -136 242l200 54q12 -80 60 -131q53 -56 131 -56q80 0 139 57t59 137q0 122 -152 193 q-142 64 -231 109.5t-127 71.5q-75 52 -75 263q0 165 119 281q121 116 285 116q149 0 254 -96q106 -95 135 -243z" />
<glyph unicode="T" horiz-adv-x="1109" d="M657 1178v-1193h-205v1193h-426v204h1058v-204h-427z" />
<glyph unicode="U" horiz-adv-x="1451" d="M1297 538q0 -237 -168 -403q-169 -167 -404 -167q-234 0 -403 167q-168 166 -168 403v844h204v-844q0 -151 107 -260q109 -107 260 -107q152 0 259 107q108 108 108 260v844h205v-844z" />
<glyph unicode="V" d="M744 -15h-259l-507 1397h215l421 -1155l420 1155h219z" />
<glyph unicode="W" horiz-adv-x="1792" d="M1307 -15h-259l-152 416l-152 -416h-259l-507 1397h215l421 -1155l173 474l-248 681h217l140 -382l138 382h219l-248 -682l173 -473l419 1155h219z" />
<glyph unicode="X" horiz-adv-x="1176" d="M922 -15l-335 510l-333 -510h-242l454 698l-454 699h242l333 -512l335 512h242l-454 -699l454 -698h-242z" />
<glyph unicode="Y" horiz-adv-x="1005" d="M606 652v-667h-205v667l-473 730h241l333 -512l334 512h243z" />
<glyph unicode="Z" horiz-adv-x="1261" d="M430 188h763v-203h-1138l776 1193h-763v204h1139z" />
<glyph unicode="[" horiz-adv-x="683" d="M154 -186v1739h375v-205h-171v-1331h171v-203h-375z" />
<glyph unicode="\" horiz-adv-x="744" d="M573 -169l-593 1635l191 70l595 -1635z" />
<glyph unicode="]" horiz-adv-x="683" d="M154 -186v203h170v1331h-170v205h375v-1739h-375z" />
<glyph unicode="^" horiz-adv-x="853" d="M592 1178l-165 111l-166 -111h-131l205 204h184l205 -204h-132z" />
<glyph unicode="_" horiz-adv-x="683" d="M-15 -152v169h715v-169h-715z" />
<glyph unicode="`" horiz-adv-x="683" d="M422 1519l-308 205h234l205 -205h-131z" />
<glyph unicode="a" horiz-adv-x="1271" d="M956 512q0 139 -101 240t-241 101t-241 -101q-100 -100 -100 -240q0 -141 100 -241t241 -100t241 100q101 101 101 241zM956 -15v126q-152 -143 -359 -143q-220 0 -375 161q-154 160 -154 383q0 225 160 385q161 161 386 161t386 -161t161 -385v-527h-205z" />
<glyph unicode="b" horiz-adv-x="1271" d="M998 512q0 139 -101 240t-240 101q-140 0 -241 -101q-100 -100 -100 -240q0 -141 100 -241t241 -100q140 0 240 100q101 101 101 241zM1203 512q0 -224 -161 -385q-161 -159 -385 -159q-226 0 -386 159q-160 160 -160 385v870h205v-469q151 145 358 145q219 0 374 -162 q155 -163 155 -384z" />
<glyph unicode="c" d="M1161 526q-1 -231 -158 -395q-156 -163 -387 -163q-228 0 -388 157t-160 384t159 388q161 161 387 161q113 0 236 -53l-84 -188q-80 36 -153 36q-142 0 -241 -101t-99 -242t100 -240t243 -99q145 0 240 104q97 104 98 251h207z" />
<glyph unicode="d" horiz-adv-x="1271" d="M956 512q0 139 -101 240t-241 101t-241 -101q-100 -100 -100 -240q0 -141 100 -241t241 -100t241 100q101 101 101 241zM1161 512q0 -224 -161 -385q-161 -159 -386 -159q-226 0 -386 159q-160 160 -160 385q0 223 154 384q154 162 375 162q208 0 359 -145v469h205v-870z " />
<glyph unicode="e" d="M831 775q-98 78 -218 78q-142 0 -241 -101t-99 -242q0 -40 14 -88zM1161 526q-1 -231 -158 -395q-156 -163 -387 -163q-228 0 -388 157t-160 385q0 226 159 387t386 161q166 0 303 -92t205 -247l-723 -470q97 -78 218 -78q146 0 241 104q96 105 97 251h207z" />
<glyph unicode="f" horiz-adv-x="614" d="M631 1178q-113 0 -193 -73q-80 -72 -80 -183v-52h171v-204h-171v-681h-204v681h-86v204h86v52q0 189 143 324q142 134 334 136v-204z" />
<glyph unicode="g" horiz-adv-x="1271" d="M956 512q0 139 -101 240t-241 101t-241 -101q-100 -100 -100 -240q0 -141 100 -241t241 -100t241 100q101 101 101 241zM1161 102q0 -222 -162 -382q-161 -162 -385 -162q-139 0 -264 71q-62 35 -112 82.5t-90 107.5l173 113q112 -169 293 -169q152 0 243 100 q85 94 97 246q-152 -141 -357 -141q-220 0 -375 161q-154 160 -154 383q0 224 161 385q163 161 385 161q224 0 385 -161q162 -161 162 -385v-410z" />
<glyph unicode="h" d="M870 -15v612q0 104 -76 180q-75 76 -180 76q-104 0 -180 -76t-76 -180v-612h-204v1397h204v-440q125 116 291 116q183 0 307 -142q119 -134 119 -319v-612h-205z" />
<glyph unicode="i" horiz-adv-x="512" d="M154 1178v204h204v-204h-204zM154 -15v1056h204v-1056h-204z" />
<glyph unicode="j" horiz-adv-x="614" d="M256 1178v204h205v-204h-205zM461 102q0 -187 -144 -322q-143 -136 -332 -137v205q112 0 191 73q80 72 80 181v939h205v-939z" />
<glyph unicode="k" horiz-adv-x="1101" d="M811 -15l-386 382l-67 -67v-315h-204v1397h204v-793l453 452h288l-529 -529l529 -527h-288z" />
<glyph unicode="l" horiz-adv-x="512" d="M154 -15v1397h204v-1397h-204z" />
<glyph unicode="m" horiz-adv-x="1655" d="M1340 -15v646q0 87 -59 155q-58 67 -146 67q-95 0 -151 -62q-54 -62 -54 -160v-646h-205v646q0 99 -55 160q-54 62 -149 62q-89 0 -147 -67t-58 -155v-646h-205v646q0 173 118 300t292 127q187 0 307 -136q118 136 307 136q173 0 291 -127q119 -128 119 -300v-646h-205z " />
<glyph unicode="n" horiz-adv-x="1143" d="M828 -15v612q0 104 -76 180t-180 76t-180 -76t-76 -180v-612h-205v612q0 183 139 322t322 139q182 0 321 -139q140 -140 140 -322v-612h-205z" />
<glyph unicode="o" d="M956 512q0 139 -101 240t-241 101t-241 -101q-100 -100 -100 -240q0 -141 100 -241t241 -100t241 100q101 101 101 241zM1161 512q0 -224 -161 -385q-161 -159 -386 -159q-226 0 -386 159q-160 160 -160 385t160 385q161 161 386 161t386 -161t161 -385z" />
<glyph unicode="p" horiz-adv-x="1271" d="M998 512q0 139 -101 240t-240 101q-140 0 -241 -101q-100 -100 -100 -240q0 -141 100 -241t241 -100q140 0 240 100q101 101 101 241zM1203 512q0 -222 -155 -383t-374 -161q-206 0 -358 143v-468h-205v869q0 225 160 385q161 161 386 161q224 0 385 -161t161 -385z" />
<glyph unicode="q" horiz-adv-x="1271" d="M956 512q0 139 -101 240t-241 101t-241 -101q-100 -100 -100 -240q0 -141 100 -241t241 -100t241 100q101 101 101 241zM956 -357v468q-152 -143 -359 -143q-220 0 -375 161q-154 160 -154 383q0 225 160 385q161 161 386 161t386 -161t161 -385v-869h-205z" />
<glyph unicode="r" horiz-adv-x="614" d="M589 853q-114 0 -193 -73q-80 -72 -80 -183v-612h-205v612q0 190 143 324q145 136 335 137v-205z" />
<glyph unicode="s" horiz-adv-x="939" d="M785 280q0 -130 -94 -221t-223 -91q-114 0 -200 71q-86 72 -111 186l198 53q20 -107 113 -107q44 0 79 32q35 33 35 77q0 73 -111 121l-141 65q-51 25 -65 36q-111 82 -111 239q0 128 93 223q94 94 224 94q114 0 200 -73q82 -71 109 -185l-200 -52q-23 105 -109 105 q-45 0 -79 -34t-34 -78q0 -72 111 -121q88 -38 138.5 -63.5t66.5 -37.5q111 -84 111 -239z" />
<glyph unicode="t" horiz-adv-x="597" d="M401 836v-851h-205v851h-170v205h170v341h205v-341h171v-205h-171z" />
<glyph unicode="u" horiz-adv-x="1143" d="M1033 427q0 -183 -140 -321t-321 -138q-183 0 -322 138t-139 321v614h205v-614q0 -104 76 -180t180 -76t180 76t76 180v614h205v-614z" />
<glyph unicode="v" horiz-adv-x="990" d="M630 -15h-270l-382 1056h215l302 -828l302 828h217z" />
<glyph unicode="w" horiz-adv-x="1451" d="M1091 -15h-270l-96 261l-95 -261h-270l-382 1056h215l302 -828l121 333l-179 495h217l71 -196l72 196h217l-179 -495l121 -333l302 828h217z" />
<glyph unicode="x" horiz-adv-x="954" d="M700 -15l-222 339l-224 -339h-242l343 527l-343 529h242l224 -341l222 341h242l-343 -529l343 -527h-242z" />
<glyph unicode="y" horiz-adv-x="954" d="M160 -357h-240l234 362v1036h204v-720l470 720h242z" />
<glyph unicode="z" horiz-adv-x="1039" d="M430 188h541v-203h-916l554 851h-541v205h917z" />
<glyph unicode="{" horiz-adv-x="853" d="M512 -186q-77 0 -133 56q-55 55 -55 130v427q0 68 -50 110q-49 43 -120 43v205q70 0 120 42q50 44 50 112v426q0 77 55 132q56 56 133 56h188v-205h-171v-495q0 -121 -109 -170q109 -49 109 -171v-495h171v-203h-188z" />
<glyph unicode="|" horiz-adv-x="512" d="M154 -186v1739h204v-1739h-204z" />
<glyph unicode="}" horiz-adv-x="853" d="M700 580q-71 0 -121 -43q-50 -42 -50 -110v-427q0 -74 -56 -130t-132 -56h-187v203h170v495q0 122 109 171q-109 49 -109 170v495h-170v205h187q76 0 132 -56t56 -132v-426q0 -68 50 -112q51 -42 121 -42v-205z" />
<glyph unicode="~" horiz-adv-x="751" d="M597 1266q0 -7 -12 -32q-41 -84 -102 -84q-38 0 -108 47q-68 47 -104 47q-47 0 -117 -97v119q0 9 12 33q41 83 104 83q38 0 106 -47q67 -46 104 -46q47 0 117 97v-120z" />
<glyph horiz-adv-x="512" d="M205 -101v69h68v17h-119v203h204v-289h-153z" />
<glyph unicode="&#x201a;" horiz-adv-x="512" d="M205 -101v69h68v17h-119v203h204v-289h-153z" />
<glyph horiz-adv-x="768" d="M461 -101v69h68v17h-119v203h204v-289h-153zM205 -101v69h68v17h-119v203h204v-289h-153z" />
<glyph unicode="&#x201e;" horiz-adv-x="768" d="M461 -101v69h68v17h-119v203h204v-289h-153zM205 -101v69h68v17h-119v203h204v-289h-153z" />
<glyph unicode="&#x85;" horiz-adv-x="1024" d="M666 -15v203h204v-203h-204zM154 -15v203h204v-203h-204zM410 -15v203h204v-203h-204z" />
<glyph unicode="&#x2026;" horiz-adv-x="1024" d="M666 -15v203h204v-203h-204zM154 -15v203h204v-203h-204zM410 -15v203h204v-203h-204z" />
<glyph horiz-adv-x="853" d="M592 1519l-165 111l-166 -111h-131l205 205h184l205 -205h-132z" />
<glyph unicode="&#x2c6;" horiz-adv-x="853" d="M592 1519l-165 111l-166 -111h-131l205 205h184l205 -205h-132z" />
<glyph horiz-adv-x="2611" d="M1536 358q0 70 -51 120q-50 51 -120 51q-71 0 -120 -51q-50 -50 -50 -120t50 -120t120 -50t120 50q51 49 51 120zM614 1007q0 70 -50 120q-50 51 -120 51t-121 -51q-50 -50 -50 -120q0 -69 50 -121q52 -50 121 -50q70 0 120 50q50 52 50 121zM570 -15h-242l911 1397h242z M1741 358q0 -154 -111 -263q-112 -110 -265 -110q-152 0 -264 110q-111 109 -111 263t111 265t264 111q154 0 265 -111t111 -265zM819 1007q0 -154 -111 -265t-264 -111q-154 0 -265 111t-111 265t111 264q111 111 265 111q153 0 264 -111q111 -110 111 -264zM2338 358 q0 70 -51 120q-50 51 -120 51q-71 0 -120 -51q-50 -50 -50 -120t50 -120t120 -50t120 50q51 49 51 120zM2543 358q0 -154 -111 -263q-112 -110 -265 -110q-152 0 -264 110q-111 109 -111 263t111 265t264 111q154 0 265 -111t111 -265z" />
<glyph unicode="&#x2030;" horiz-adv-x="2611" d="M1536 358q0 70 -51 120q-50 51 -120 51q-71 0 -120 -51q-50 -50 -50 -120t50 -120t120 -50t120 50q51 49 51 120zM614 1007q0 70 -50 120q-50 51 -120 51t-121 -51q-50 -50 -50 -120q0 -69 50 -121q52 -50 121 -50q70 0 120 50q50 52 50 121zM570 -15h-242l911 1397h242z M1741 358q0 -154 -111 -263q-112 -110 -265 -110q-152 0 -264 110q-111 109 -111 263t111 265t264 111q154 0 265 -111t111 -265zM819 1007q0 -154 -111 -265t-264 -111q-154 0 -265 111t-111 265t111 264q111 111 265 111q153 0 264 -111q111 -110 111 -264zM2338 358 q0 70 -51 120q-50 51 -120 51q-71 0 -120 -51q-50 -50 -50 -120t50 -120t120 -50t120 50q51 49 51 120zM2543 358q0 -154 -111 -263q-112 -110 -265 -110q-152 0 -264 110q-111 109 -111 263t111 265t264 111q154 0 265 -111t111 -265z" />
<glyph horiz-adv-x="1097" d="M746 1009q-11 81 -60 133q-50 53 -128 53q-81 0 -139 -57q-59 -56 -59 -136q0 -124 152 -195l280 -129q152 -105 152 -313q0 -165 -119 -281t-284 -116q-149 0 -255 94q-108 95 -136 242l200 54q12 -80 60 -131q53 -56 131 -56q80 0 139 57t59 137q0 122 -152 193 q-142 64 -231 109.5t-127 71.5q-75 52 -75 263q0 165 119 281q121 116 285 116q149 0 254 -96q106 -95 135 -243zM640 1519h-184l-205 205h131l166 -111l165 111h132z" />
<glyph unicode="&#x160;" horiz-adv-x="1097" d="M746 1009q-11 81 -60 133q-50 53 -128 53q-81 0 -139 -57q-59 -56 -59 -136q0 -124 152 -195l280 -129q152 -105 152 -313q0 -165 -119 -281t-284 -116q-149 0 -255 94q-108 95 -136 242l200 54q12 -80 60 -131q53 -56 131 -56q80 0 139 57t59 137q0 122 -152 193 q-142 64 -231 109.5t-127 71.5q-75 52 -75 263q0 165 119 281q121 116 285 116q149 0 254 -96q106 -95 135 -243zM640 1519h-184l-205 205h131l166 -111l165 111h132z" />
<glyph horiz-adv-x="657" d="M331 324l-179 359l179 358h183l-179 -358l179 -359h-183z" />
<glyph unicode="&#x2039;" horiz-adv-x="657" d="M331 324l-179 359l179 358h183l-179 -358l179 -359h-183z" />
<glyph horiz-adv-x="2338" d="M1297 683q0 210 -151 361t-361 151t-361 -151t-151 -361t151 -361t361 -151t361 151t151 361zM1297 -15v198q-212 -215 -512 -215q-294 0 -505 210q-212 212 -212 505q0 292 212 504t505 212q300 0 512 -216v199h888v-204h-683v-376h512v-205h-512v-409h683v-203h-888z " />
<glyph unicode="&#x152;" horiz-adv-x="2338" d="M1297 683q0 210 -151 361t-361 151t-361 -151t-151 -361t151 -361t361 -151t361 151t151 361zM1297 -15v198q-212 -215 -512 -215q-294 0 -505 210q-212 212 -212 505q0 292 212 504t505 212q300 0 512 -216v199h888v-204h-683v-376h512v-205h-512v-409h683v-203h-888z " />
<glyph horiz-adv-x="512" d="M154 1092v290h153v-68h-68v-17h119v-205h-204z" />
<glyph unicode="&#x2018;" horiz-adv-x="512" d="M154 1092v290h153v-68h-68v-17h119v-205h-204z" />
<glyph horiz-adv-x="512" d="M205 1092v69h68v17h-119v204h204v-290h-153z" />
<glyph unicode="&#x2019;" horiz-adv-x="512" d="M205 1092v69h68v17h-119v204h204v-290h-153z" />
<glyph horiz-adv-x="768" d="M410 1092v290h153v-68h-68v-17h119v-205h-204zM154 1092v290h153v-68h-68v-17h119v-205h-204z" />
<glyph unicode="&#x201c;" horiz-adv-x="768" d="M410 1092v290h153v-68h-68v-17h119v-205h-204zM154 1092v290h153v-68h-68v-17h119v-205h-204z" />
<glyph horiz-adv-x="768" d="M461 1092v69h68v17h-119v204h204v-290h-153zM205 1092v69h68v17h-119v204h204v-290h-153z" />
<glyph unicode="&#x201d;" horiz-adv-x="768" d="M461 1092v69h68v17h-119v204h204v-290h-153zM205 1092v69h68v17h-119v204h204v-290h-153z" />
<glyph horiz-adv-x="853" d="M785 683q0 -149 -105 -254t-253 -105q-149 0 -254 105t-105 254q0 148 105 253t254 105q148 0 253 -105t105 -253z" />
<glyph unicode="&#x2022;" horiz-adv-x="853" d="M785 683q0 -149 -105 -254t-253 -105q-149 0 -254 105t-105 254q0 148 105 253t254 105q148 0 253 -105t105 -253z" />
<glyph horiz-adv-x="768" d="M154 597v171h460v-171h-460z" />
<glyph unicode="&#x2013;" horiz-adv-x="768" d="M154 597v171h460v-171h-460z" />
<glyph horiz-adv-x="1024" d="M154 597v171h716v-171h-716z" />
<glyph unicode="&#x2014;" horiz-adv-x="1024" d="M154 597v171h716v-171h-716z" />
<glyph horiz-adv-x="751" d="M597 1550q0 -8 -12 -33q-41 -83 -102 -83q-40 0 -108 46q-68 47 -104 47q-47 0 -117 -97v120q0 8 12 32q40 84 104 84q38 0 106 -47t104 -47q47 0 117 97v-119z" />
<glyph unicode="&#x2dc;" horiz-adv-x="751" d="M597 1550q0 -8 -12 -33q-41 -83 -102 -83q-40 0 -108 46q-68 47 -104 47q-47 0 -117 -97v120q0 8 12 32q40 84 104 84q38 0 106 -47t104 -47q47 0 117 97v-119z" />
<glyph horiz-adv-x="1031" d="M867 857v280l-121 -280h-92l-122 280v-280h-95v430h-120v-430h-95v430h-154v95h461l171 -389l170 389h93v-525h-96z" />
<glyph unicode="&#x2122;" horiz-adv-x="1031" d="M867 857v280l-121 -280h-92l-122 280v-280h-95v430h-120v-430h-95v430h-154v95h461l171 -389l170 389h93v-525h-96z" />
<glyph horiz-adv-x="939" d="M785 280q0 -130 -94 -221t-223 -91q-114 0 -200 71q-86 72 -111 186l198 53q20 -107 113 -107q44 0 79 32q35 33 35 77q0 73 -111 121l-141 65q-51 25 -65 36q-111 82 -111 239q0 128 93 223q94 94 224 94q114 0 200 -73q82 -71 109 -185l-200 -52q-23 105 -109 105 q-45 0 -79 -34t-34 -78q0 -72 111 -121q88 -38 138.5 -63.5t66.5 -37.5q111 -84 111 -239zM562 1180h-184l-205 205h131l166 -111l165 111h132z" />
<glyph unicode="&#x161;" horiz-adv-x="939" d="M785 280q0 -130 -94 -221t-223 -91q-114 0 -200 71q-86 72 -111 186l198 53q20 -107 113 -107q44 0 79 32q35 33 35 77q0 73 -111 121l-141 65q-51 25 -65 36q-111 82 -111 239q0 128 93 223q94 94 224 94q114 0 200 -73q82 -71 109 -185l-200 -52q-23 105 -109 105 q-45 0 -79 -34t-34 -78q0 -72 111 -121q88 -38 138.5 -63.5t66.5 -37.5q111 -84 111 -239zM562 1180h-184l-205 205h131l166 -111l165 111h132z" />
<glyph horiz-adv-x="657" d="M326 324h-183l180 359l-180 358h183l179 -358z" />
<glyph unicode="&#x203a;" horiz-adv-x="657" d="M326 324h-183l180 359l-180 358h183l179 -358z" />
<glyph horiz-adv-x="2116" d="M1828 614q-35 107 -125 172q-89 67 -201 67q-111 0 -202 -67q-90 -66 -124 -172h652zM956 512q0 139 -101 240t-241 101t-241 -101q-100 -100 -100 -240q0 -141 100 -241t241 -100t241 100q101 101 101 241zM2048 512q0 -51 -9 -102h-863q34 -106 124 -173 q91 -66 202 -66q181 0 293 169l173 -113q-79 -121 -200 -189q-124 -70 -266 -70q-280 0 -444 227q-164 -227 -444 -227q-226 0 -386 159q-160 160 -160 385t160 385q161 161 386 161q281 0 444 -229q163 229 444 229q224 0 385 -161t161 -385z" />
<glyph unicode="&#x153;" horiz-adv-x="2116" d="M1828 614q-35 107 -125 172q-89 67 -201 67q-111 0 -202 -67q-90 -66 -124 -172h652zM956 512q0 139 -101 240t-241 101t-241 -101q-100 -100 -100 -240q0 -141 100 -241t241 -100t241 100q101 101 101 241zM2048 512q0 -51 -9 -102h-863q34 -106 124 -173 q91 -66 202 -66q181 0 293 169l173 -113q-79 -121 -200 -189q-124 -70 -266 -70q-280 0 -444 227q-164 -227 -444 -227q-226 0 -386 159q-160 160 -160 385t160 385q161 161 386 161q281 0 444 -229q163 229 444 229q224 0 385 -161t161 -385z" />
<glyph horiz-adv-x="1005" d="M606 652v-667h-205v667l-473 730h241l333 -512l334 512h243zM263 1519v171h170v-171h-170zM570 1519v171h170v-171h-170z" />
<glyph unicode="&#x178;" horiz-adv-x="1005" d="M606 652v-667h-205v667l-473 730h241l333 -512l334 512h243zM263 1519v171h170v-171h-170zM570 1519v171h170v-171h-170z" />
<glyph unicode="&#xa1;" horiz-adv-x="512" d="M154 836v205h204v-205h-204zM154 -357l34 1057h136l34 -1057h-204z" />
<glyph unicode="&#xa2;" horiz-adv-x="1118" d="M594 1089q-111 0 -191 -80q-79 -79 -79 -190q0 -133 109 -215l176 485h-15zM971 592q-143 -213 -377 -213q-65 0 -126 19l-52 -142h-109l67 183q-101 59 -161 161q-59 104 -59 219q0 180 129 311q130 130 311 130q18 0 37.5 -1.5t39.5 -5.5l46 129h109l-58 -158 q61 -26 111 -70.5t92 -107.5l-143 -94q-52 78 -118 110l-184 -502q36 -10 68 -10q143 0 234 136z" />
<glyph unicode="&#xa5;" horiz-adv-x="1005" d="M637 700h225v-205h-256v-137h256v-204h-256v-169h-205v169h-256v204h256v137h-256v205h225l-442 682h241l333 -512l334 512h243z" />
<glyph unicode="&#xa8;" horiz-adv-x="785" d="M154 1519v171h170v-171h-170zM461 1519v171h170v-171h-170z" />
<glyph unicode="&#xa9;" horiz-adv-x="928" d="M700 230q-92 -138 -236 -138q-109 0 -189 80q-80 82 -80 190q0 109 80 189t189 80q144 0 236 -138l-80 -53q-65 96 -156 96q-70 0 -122 -52t-52 -122t52 -122t122 -52q95 0 156 94zM765 362q0 124 -88 212t-213 88q-124 0 -212 -88t-88 -212q0 -125 88 -213t212 -88 q125 0 213 88t88 213zM860 362q0 -163 -116 -279q-115 -115 -280 -115t-280 115q-116 116 -116 279q0 164 116 280t280 116t280 -116t116 -280z" />
<glyph unicode="&#xaa;" horiz-adv-x="1271" d="M956 512q0 139 -101 240t-241 101t-241 -101q-100 -100 -100 -240q0 -141 100 -241t241 -100t241 100q101 101 101 241zM956 -15v126q-152 -143 -359 -143q-220 0 -375 161q-154 160 -154 383q0 225 160 385q161 161 386 161t386 -161t161 -385v-527h-205z" />
<glyph unicode="&#xab;" horiz-adv-x="973" d="M331 324l-179 359l179 358h183l-179 -358l179 -359h-183zM647 324l-179 359l179 358h182l-179 -358l179 -359h-182z" />
<glyph unicode="&#xad;" horiz-adv-x="853" d="M154 597v171h546v-171h-546z" />
<glyph unicode="&#xae;" horiz-adv-x="928" d="M247 570q-83 -88 -83 -208t83 -208v416zM585 459q0 24 -17.5 42t-41.5 18h-183v-120h183q24 0 41.5 18t17.5 42zM582 89l-123 215h-116v-215h-3q57 -28 124 -28q66 0 125 28h-7zM765 362q0 122 -89 211t-212 89q-89 0 -162 -48h224q63 0 109 -46t46 -109q0 -51 -33 -93 q-31 -41 -81 -55l99 -173q99 88 99 224zM860 362q0 -163 -116 -279q-115 -115 -280 -115t-280 115q-116 116 -116 279q0 164 116 280t280 116t280 -116t116 -280z" />
<glyph unicode="&#xaf;" horiz-adv-x="853" d="M154 1212v170h546v-170h-546z" />
<glyph unicode="&#xb0;" horiz-adv-x="597" d="M341 1237q0 43 -42 43q-43 0 -43 -43q0 -42 43 -42q42 0 42 42zM444 1237q0 -59 -43 -102t-102 -43q-60 0 -103 43q-42 43 -42 102q0 60 42 102q43 43 103 43q59 0 102 -43q43 -42 43 -102z" />
<glyph unicode="&#xb1;" horiz-adv-x="853" d="M512 597v-187h-171v187h-187v171h187v188h171v-188h188v-171h-188zM154 -15v169h546v-169h-546z" />
<glyph unicode="&#xb2;" horiz-adv-x="1072" d="M961 1002q0 -203 -152 -350l-143 -106l-144 -107q-157 -118 -164 -251h598v-203h-802v186q0 209 155 358l290 212q155 119 155 261q0 80 -59 136q-59 57 -139 57q-76 0 -127 -54q-50 -54 -60 -132l-202 51q28 147 135 243q106 96 254 96q166 0 285 -116 q120 -116 120 -281z" />
<glyph unicode="&#xb3;" horiz-adv-x="1138" d="M985 410q0 -182 -131 -313q-131 -129 -313 -129q-155 0 -275 96q-119 97 -158 250l197 51q22 -84 87 -140q64 -54 149 -54q98 0 168 70q71 71 71 169q0 97 -71 168t-168 71h-102v204h102q70 0 120 50q51 51 51 121t-51 120q-50 51 -120 51q-132 0 -169 -144l-198 53 q34 129 135 212t232 83q155 0 265 -110t110 -265q0 -169 -133 -266q202 -115 202 -348z" />
<glyph unicode="&#xb4;" horiz-adv-x="683" d="M261 1519h-131l205 205h233z" />
<glyph unicode="&#xb6;" horiz-adv-x="1323" d="M1084 1178v-1364h-205v1364h-137v-1364h-204v766h-69q-165 0 -283 118t-118 283q0 164 118 282q119 119 283 119h785v-204h-170z" />
<glyph unicode="&#xb9;" horiz-adv-x="512" d="M154 -15v1397h204v-1397h-204z" />
<glyph unicode="&#xba;" d="M956 512q0 139 -101 240t-241 101t-241 -101q-100 -100 -100 -240q0 -141 100 -241t241 -100t241 100q101 101 101 241zM1161 512q0 -224 -161 -385q-161 -159 -386 -159q-226 0 -386 159q-160 160 -160 385t160 385q161 161 386 161t386 -161t161 -385z" />
<glyph unicode="&#xbb;" horiz-adv-x="973" d="M326 324h-183l180 359l-180 358h183l179 -358zM642 324h-183l179 359l-179 358h183l179 -358z" />
<glyph unicode="&#xbf;" horiz-adv-x="1097" d="M739 853v205h205v-205h-205zM947 -17q-29 -150 -135 -244q-105 -96 -254 -96q-164 0 -285 116q-119 116 -119 280q0 155 80 249q67 80 223 144l51 20l52 19q29 12 52.5 24.5t42.5 25.5q55 39 72 87q12 32 12 98v11h205v-41q0 -207 -152 -312l-140 -64l-140 -64 q-152 -72 -152 -197q0 -78 59 -134q58 -57 139 -57q78 0 128 53q49 52 60 131z" />
<glyph unicode="&#xc0;" d="M614 1138l-254 -694h507zM1034 -15l-94 254h-653l-94 -254h-215l507 1397h259l509 -1397h-219zM610 1519l-308 205h234l205 -205h-131z" />
<glyph unicode="&#xc1;" d="M614 1138l-254 -694h507zM1034 -15l-94 254h-653l-94 -254h-215l507 1397h259l509 -1397h-219zM619 1519h-131l205 205h233z" />
<glyph unicode="&#xc2;" d="M614 1138l-254 -694h507zM1034 -15l-94 254h-653l-94 -254h-215l507 1397h259l509 -1397h-219zM780 1519l-165 111l-166 -111h-131l205 205h184l205 -205h-132z" />
<glyph unicode="&#xc3;" d="M614 1138l-254 -694h507zM1034 -15l-94 254h-653l-94 -254h-215l507 1397h259l509 -1397h-219zM836 1550q0 -8 -12 -33q-41 -83 -102 -83q-40 0 -108 46q-68 47 -104 47q-47 0 -117 -97v120q0 8 12 32q40 84 104 84q38 0 106 -47t104 -47q47 0 117 97v-119z" />
<glyph unicode="&#xc4;" d="M614 1138l-254 -694h507zM1034 -15l-94 254h-653l-94 -254h-215l507 1397h259l509 -1397h-219zM376 1519v171h170v-171h-170zM683 1519v171h170v-171h-170z" />
<glyph unicode="&#xc5;" d="M614 1138l-254 -694h507zM1034 -15l-94 254h-653l-94 -254h-215l507 1397h259l509 -1397h-219zM657 1579q0 42 -42 42q-43 0 -43 -42q0 -43 43 -43q42 0 42 43zM760 1579q0 -60 -43 -103q-44 -42 -102 -42q-60 0 -103 42q-42 43 -42 103q0 58 42 102q43 43 103 43 q59 0 102 -43t43 -102z" />
<glyph unicode="&#xc6;" horiz-adv-x="1901" d="M860 1130l-442 -686h442v686zM860 -15v254h-573l-166 -254h-235l899 1397h963v-204h-683v-376h512v-205h-512v-409h683v-203h-888z" />
<glyph unicode="&#xc8;" horiz-adv-x="1195" d="M154 -15v1397h887v-204h-683v-376h512v-205h-512v-409h683v-203h-887zM593 1519l-308 205h234l205 -205h-131z" />
<glyph unicode="&#xc9;" horiz-adv-x="1195" d="M154 -15v1397h887v-204h-683v-376h512v-205h-512v-409h683v-203h-887zM602 1519h-131l205 205h233z" />
<glyph unicode="&#xca;" horiz-adv-x="1195" d="M154 -15v1397h887v-204h-683v-376h512v-205h-512v-409h683v-203h-887zM763 1519l-165 111l-166 -111h-131l205 205h184l205 -205h-132z" />
<glyph unicode="&#xcb;" horiz-adv-x="1195" d="M154 -15v1397h887v-204h-683v-376h512v-205h-512v-409h683v-203h-887zM359 1519v171h170v-171h-170zM666 1519v171h170v-171h-170z" />
<glyph unicode="&#xcc;" horiz-adv-x="512" d="M154 -15v1397h204v-1397h-204zM253 1519l-308 205h234l205 -205h-131z" />
<glyph unicode="&#xcd;" horiz-adv-x="512" d="M154 -15v1397h204v-1397h-204zM261 1519h-131l205 205h233z" />
<glyph unicode="&#xce;" horiz-adv-x="512" d="M154 -15v1397h204v-1397h-204zM423 1519l-165 111l-166 -111h-131l205 205h184l205 -205h-132z" />
<glyph unicode="&#xcf;" horiz-adv-x="512" d="M154 -15v1397h204v-1397h-204zM19 1519v171h170v-171h-170zM326 1519v171h170v-171h-170z" />
<glyph unicode="&#xd1;" horiz-adv-x="1365" d="M1015 -15l-657 1008v-1008h-204v1397h196l657 -1010v1010h205v-1397h-197zM904 1550q0 -8 -12 -33q-41 -83 -102 -83q-40 0 -108 46q-68 47 -104 47q-47 0 -117 -97v120q0 8 12 32q40 84 104 84q38 0 106 -47t104 -47q47 0 117 97v-119z" />
<glyph unicode="&#xd2;" horiz-adv-x="1570" d="M1297 683q0 210 -151 361t-361 151t-361 -151t-151 -361t151 -361t361 -151t361 151t151 361zM1502 683q0 -293 -212 -505q-212 -210 -505 -210q-294 0 -505 210q-212 212 -212 505q0 292 212 504t505 212t505 -212t212 -504zM780 1519l-308 205h234l205 -205h-131z" />
<glyph unicode="&#xd3;" horiz-adv-x="1570" d="M1297 683q0 210 -151 361t-361 151t-361 -151t-151 -361t151 -361t361 -151t361 151t151 361zM1502 683q0 -293 -212 -505q-212 -210 -505 -210q-294 0 -505 210q-212 212 -212 505q0 292 212 504t505 212t505 -212t212 -504zM790 1519h-131l205 205h233z" />
<glyph unicode="&#xd4;" horiz-adv-x="1570" d="M1297 683q0 210 -151 361t-361 151t-361 -151t-151 -361t151 -361t361 -151t361 151t151 361zM1502 683q0 -293 -212 -505q-212 -210 -505 -210q-294 0 -505 210q-212 212 -212 505q0 292 212 504t505 212t505 -212t212 -504zM950 1519l-165 111l-166 -111h-131l205 205 h184l205 -205h-132z" />
<glyph unicode="&#xd5;" horiz-adv-x="1570" d="M1297 683q0 210 -151 361t-361 151t-361 -151t-151 -361t151 -361t361 -151t361 151t151 361zM1502 683q0 -293 -212 -505q-212 -210 -505 -210q-294 0 -505 210q-212 212 -212 505q0 292 212 504t505 212t505 -212t212 -504zM1007 1550q0 -8 -12 -33q-41 -83 -102 -83 q-40 0 -108 46q-68 47 -104 47q-47 0 -117 -97v120q0 8 12 32q40 84 104 84q38 0 106 -47t104 -47q47 0 117 97v-119z" />
<glyph unicode="&#xd6;" horiz-adv-x="1570" d="M1297 683q0 210 -151 361t-361 151t-361 -151t-151 -361t151 -361t361 -151t361 151t151 361zM1502 683q0 -293 -212 -505q-212 -210 -505 -210q-294 0 -505 210q-212 212 -212 505q0 292 212 504t505 212t505 -212t212 -504zM547 1519v171h170v-171h-170zM854 1519v171 h170v-171h-170z" />
<glyph unicode="&#xd7;" horiz-adv-x="853" d="M560 430l-133 131l-133 -131l-120 120l131 133l-131 133l120 119l133 -131l133 131l119 -119l-131 -133l131 -133z" />
<glyph unicode="&#xd8;" horiz-adv-x="1570" d="M973 1157q-96 38 -188 38q-210 0 -361 -151t-151 -361q0 -211 154 -362zM1297 683q0 210 -154 361l-546 -836q93 -37 188 -37q210 0 361 151t151 361zM1502 683q0 -293 -212 -505q-212 -210 -505 -210q-160 0 -300 64l-34 -47h-244l107 160q-246 217 -246 538 q0 292 212 504t505 212q159 0 300 -66l35 49h244l-108 -162q246 -216 246 -537z" />
<glyph unicode="&#xd9;" horiz-adv-x="1451" d="M1297 538q0 -237 -168 -403q-169 -167 -404 -167q-234 0 -403 167q-168 166 -168 403v844h204v-844q0 -151 107 -260q109 -107 260 -107q152 0 259 107q108 108 108 260v844h205v-844zM721 1519l-308 205h234l205 -205h-131z" />
<glyph unicode="&#xda;" horiz-adv-x="1451" d="M1297 538q0 -237 -168 -403q-169 -167 -404 -167q-234 0 -403 167q-168 166 -168 403v844h204v-844q0 -151 107 -260q109 -107 260 -107q152 0 259 107q108 108 108 260v844h205v-844zM730 1519h-131l205 205h233z" />
<glyph unicode="&#xdb;" horiz-adv-x="1451" d="M1297 538q0 -237 -168 -403q-169 -167 -404 -167q-234 0 -403 167q-168 166 -168 403v844h204v-844q0 -151 107 -260q109 -107 260 -107q152 0 259 107q108 108 108 260v844h205v-844zM891 1519l-165 111l-166 -111h-131l205 205h184l205 -205h-132z" />
<glyph unicode="&#xdc;" horiz-adv-x="1451" d="M1297 538q0 -237 -168 -403q-169 -167 -404 -167q-234 0 -403 167q-168 166 -168 403v844h204v-844q0 -151 107 -260q109 -107 260 -107q152 0 259 107q108 108 108 260v844h205v-844zM487 1519v171h170v-171h-170zM794 1519v171h170v-171h-170z" />
<glyph unicode="&#xdd;" horiz-adv-x="1005" d="M606 652v-667h-205v667l-473 730h241l333 -512l334 512h243zM507 1519h-131l205 205h233z" />
<glyph unicode="&#xe0;" horiz-adv-x="1271" d="M956 512q0 139 -101 240t-241 101t-241 -101q-100 -100 -100 -240q0 -141 100 -241t241 -100t241 100q101 101 101 241zM956 -15v126q-152 -143 -359 -143q-220 0 -375 161q-154 160 -154 383q0 225 160 385q161 161 386 161t386 -161t161 -385v-527h-205zM652 1180 l-308 205h234l205 -205h-131z" />
<glyph unicode="&#xe1;" horiz-adv-x="1271" d="M956 512q0 139 -101 240t-241 101t-241 -101q-100 -100 -100 -240q0 -141 100 -241t241 -100t241 100q101 101 101 241zM956 -15v126q-152 -143 -359 -143q-220 0 -375 161q-154 160 -154 383q0 225 160 385q161 161 386 161t386 -161t161 -385v-527h-205zM662 1180h-131 l205 205h233z" />
<glyph unicode="&#xe2;" horiz-adv-x="1271" d="M956 512q0 139 -101 240t-241 101t-241 -101q-100 -100 -100 -240q0 -141 100 -241t241 -100t241 100q101 101 101 241zM956 -15v126q-152 -143 -359 -143q-220 0 -375 161q-154 160 -154 383q0 225 160 385q161 161 386 161t386 -161t161 -385v-527h-205zM754 1180 l-165 111l-166 -111h-131l205 205h184l205 -205h-132z" />
<glyph unicode="&#xe3;" horiz-adv-x="1271" d="M956 512q0 139 -101 240t-241 101t-241 -101q-100 -100 -100 -240q0 -141 100 -241t241 -100t241 100q101 101 101 241zM956 -15v126q-152 -143 -359 -143q-220 0 -375 161q-154 160 -154 383q0 225 160 385q161 161 386 161t386 -161t161 -385v-527h-205zM827 1211 q0 -8 -12 -33q-41 -83 -102 -83q-40 0 -108 46q-68 47 -104 47q-47 0 -117 -97v120q0 8 12 32q40 84 104 84q38 0 106 -47t104 -47q47 0 117 97v-119z" />
<glyph unicode="&#xe4;" horiz-adv-x="1271" d="M956 512q0 139 -101 240t-241 101t-241 -101q-100 -100 -100 -240q0 -141 100 -241t241 -100t241 100q101 101 101 241zM956 -15v126q-152 -143 -359 -143q-220 0 -375 161q-154 160 -154 383q0 225 160 385q161 161 386 161t386 -161t161 -385v-527h-205zM367 1180v171 h170v-171h-170zM674 1180v171h170v-171h-170z" />
<glyph unicode="&#xe5;" horiz-adv-x="1271" d="M956 512q0 139 -101 240t-241 101t-241 -101q-100 -100 -100 -240q0 -141 100 -241t241 -100t241 100q101 101 101 241zM956 -15v126q-152 -143 -359 -143q-220 0 -375 161q-154 160 -154 383q0 225 160 385q161 161 386 161t386 -161t161 -385v-527h-205zM631 1240 q0 42 -42 42q-43 0 -43 -42q0 -43 43 -43q42 0 42 43zM734 1240q0 -60 -43 -103q-44 -42 -102 -42q-60 0 -103 42q-42 43 -42 103q0 58 42 102q43 43 103 43q59 0 102 -43t43 -102z" />
<glyph unicode="&#xe6;" horiz-adv-x="2116" d="M1719 777q-95 76 -219 76q-141 0 -240 -100q-99 -99 -99 -241q0 -43 13 -89zM956 512q0 139 -101 240t-241 101t-241 -101q-100 -100 -100 -240q0 -141 100 -241t241 -100t241 100q101 101 101 241zM2048 527q-1 -229 -148 -392q-152 -167 -379 -167q-214 0 -360 143 v-126h-205v126q-155 -143 -359 -143q-220 0 -375 161q-154 160 -154 383q0 224 161 385q163 161 385 161q278 0 442 -227q164 227 444 227q166 0 303 -92t206 -246l-724 -469q100 -80 219 -80q145 0 240 105q95 104 97 251h207z" />
<glyph unicode="&#xe8;" d="M831 775q-98 78 -218 78q-142 0 -241 -101t-99 -242q0 -40 14 -88zM1161 526q-1 -231 -158 -395q-156 -163 -387 -163q-228 0 -388 157t-160 385q0 226 159 387t386 161q166 0 303 -92t205 -247l-723 -470q97 -78 218 -78q146 0 241 104q96 105 97 251h207zM610 1180 l-308 205h234l205 -205h-131z" />
<glyph unicode="&#xe9;" d="M831 775q-98 78 -218 78q-142 0 -241 -101t-99 -242q0 -40 14 -88zM1161 526q-1 -231 -158 -395q-156 -163 -387 -163q-228 0 -388 157t-160 385q0 226 159 387t386 161q166 0 303 -92t205 -247l-723 -470q97 -78 218 -78q146 0 241 104q96 105 97 251h207zM619 1180 h-131l205 205h233z" />
<glyph unicode="&#xea;" d="M831 775q-98 78 -218 78q-142 0 -241 -101t-99 -242q0 -40 14 -88zM1161 526q-1 -231 -158 -395q-156 -163 -387 -163q-228 0 -388 157t-160 385q0 226 159 387t386 161q166 0 303 -92t205 -247l-723 -470q97 -78 218 -78q146 0 241 104q96 105 97 251h207zM780 1180 l-165 111l-166 -111h-131l205 205h184l205 -205h-132z" />
<glyph unicode="&#xeb;" d="M831 775q-98 78 -218 78q-142 0 -241 -101t-99 -242q0 -40 14 -88zM1161 526q-1 -231 -158 -395q-156 -163 -387 -163q-228 0 -388 157t-160 385q0 226 159 387t386 161q166 0 303 -92t205 -247l-723 -470q97 -78 218 -78q146 0 241 104q96 105 97 251h207zM376 1180v171 h170v-171h-170zM683 1180v171h170v-171h-170z" />
<glyph unicode="&#xec;" horiz-adv-x="512" d="M154 -15v1056h204v-1056h-204zM253 1180l-308 205h234l205 -205h-131z" />
<glyph unicode="&#xed;" horiz-adv-x="512" d="M154 -15v1056h204v-1056h-204zM261 1180h-131l205 205h233z" />
<glyph unicode="&#xee;" horiz-adv-x="512" d="M154 -15v1056h204v-1056h-204zM423 1180l-165 111l-166 -111h-131l205 205h184l205 -205h-132z" />
<glyph unicode="&#xef;" horiz-adv-x="512" d="M154 -15v1056h204v-1056h-204zM19 1180v171h170v-171h-170zM326 1180v171h170v-171h-170z" />
<glyph unicode="&#xf1;" d="M828 -15v612q0 104 -76 180t-180 76t-180 -76t-76 -180v-612h-205v612q0 183 139 322t322 139q182 0 321 -139q140 -140 140 -322v-612h-205zM836 1211q0 -8 -12 -33q-41 -83 -102 -83q-40 0 -108 46q-68 47 -104 47q-47 0 -117 -97v120q0 8 12 32q40 84 104 84 q38 0 106 -47t104 -47q47 0 117 97v-119z" />
<glyph unicode="&#xf2;" d="M956 512q0 139 -101 240t-241 101t-241 -101q-100 -100 -100 -240q0 -141 100 -241t241 -100t241 100q101 101 101 241zM1161 512q0 -224 -161 -385q-161 -159 -386 -159q-226 0 -386 159q-160 160 -160 385t160 385q161 161 386 161t386 -161t161 -385zM610 1180 l-308 205h234l205 -205h-131z" />
<glyph unicode="&#xf3;" d="M956 512q0 139 -101 240t-241 101t-241 -101q-100 -100 -100 -240q0 -141 100 -241t241 -100t241 100q101 101 101 241zM1161 512q0 -224 -161 -385q-161 -159 -386 -159q-226 0 -386 159q-160 160 -160 385t160 385q161 161 386 161t386 -161t161 -385zM636 1180h-131 l205 205h233z" />
<glyph unicode="&#xf4;" d="M956 512q0 139 -101 240t-241 101t-241 -101q-100 -100 -100 -240q0 -141 100 -241t241 -100t241 100q101 101 101 241zM1161 512q0 -224 -161 -385q-161 -159 -386 -159q-226 0 -386 159q-160 160 -160 385t160 385q161 161 386 161t386 -161t161 -385zM780 1180 l-165 111l-166 -111h-131l205 205h184l205 -205h-132z" />
<glyph unicode="&#xf5;" d="M956 512q0 139 -101 240t-241 101t-241 -101q-100 -100 -100 -240q0 -141 100 -241t241 -100t241 100q101 101 101 241zM1161 512q0 -224 -161 -385q-161 -159 -386 -159q-226 0 -386 159q-160 160 -160 385t160 385q161 161 386 161t386 -161t161 -385zM836 1211 q0 -8 -12 -33q-41 -83 -102 -83q-40 0 -108 46q-68 47 -104 47q-47 0 -117 -97v120q0 8 12 32q40 84 104 84q38 0 106 -47t104 -47q47 0 117 97v-119z" />
<glyph unicode="&#xf6;" d="M956 512q0 139 -101 240t-241 101t-241 -101q-100 -100 -100 -240q0 -141 100 -241t241 -100t241 100q101 101 101 241zM1161 512q0 -224 -161 -385q-161 -159 -386 -159q-226 0 -386 159q-160 160 -160 385t160 385q161 161 386 161t386 -161t161 -385zM376 1180v171 h170v-171h-170zM683 1180v171h170v-171h-170z" />
<glyph unicode="&#xf7;" horiz-adv-x="853" d="M154 597v171h546v-171h-546zM341 819v171h171v-171h-171zM341 375v171h171v-171h-171z" />
<glyph unicode="&#xf8;" d="M956 512q0 116 -70 207l-381 -530q55 -18 109 -18q141 0 241 100q101 101 101 241zM724 835q-56 18 -110 18q-140 0 -241 -101q-100 -100 -100 -240q0 -116 70 -207zM1161 512q0 -224 -161 -385q-161 -159 -386 -159q-125 0 -232 49l-25 -32h-246l111 150 q-154 160 -154 377q0 225 160 385q161 161 386 161q125 0 233 -51l25 34h246l-111 -152q154 -160 154 -377z" />
<glyph unicode="&#xf9;" d="M1033 427q0 -183 -140 -321t-321 -138q-183 0 -322 138t-139 321v614h205v-614q0 -104 76 -180t180 -76t180 76t76 180v614h205v-614zM610 1180l-308 205h234l205 -205h-131z" />
<glyph unicode="&#xfa;" d="M1033 427q0 -183 -140 -321t-321 -138q-183 0 -322 138t-139 321v614h205v-614q0 -104 76 -180t180 -76t180 76t76 180v614h205v-614zM619 1180h-131l205 205h233z" />
<glyph unicode="&#xfb;" d="M1033 427q0 -183 -140 -321t-321 -138q-183 0 -322 138t-139 321v614h205v-614q0 -104 76 -180t180 -76t180 76t76 180v614h205v-614zM780 1180l-165 111l-166 -111h-131l205 205h184l205 -205h-132z" />
<glyph unicode="&#xfc;" d="M1033 427q0 -183 -140 -321t-321 -138q-183 0 -322 138t-139 321v614h205v-614q0 -104 76 -180t180 -76t180 76t76 180v614h205v-614zM376 1180v171h170v-171h-170zM683 1180v171h170v-171h-170z" />
<glyph unicode="&#xfd;" horiz-adv-x="954" d="M160 -357h-240l234 362v1036h204v-720l470 720h242zM566 1180h-131l205 205h233z" />
<glyph unicode="&#xff;" horiz-adv-x="954" d="M160 -357h-240l234 362v1036h204v-720l470 720h242zM323 1180v171h170v-171h-170zM630 1180v171h170v-171h-170z" />
<glyph unicode="&#x131;" horiz-adv-x="512" d="M154 -15v1056h204v-1056h-204z" />
<glyph unicode="&#x2c7;" horiz-adv-x="853" d="M519 1519h-184l-205 205h131l166 -111l165 111h132z" />
<glyph unicode="&#x2da;" horiz-adv-x="597" d="M341 1579q0 42 -42 42q-43 0 -43 -42q0 -43 43 -43q42 0 42 43zM444 1579q0 -60 -43 -103q-44 -42 -102 -42q-60 0 -103 42q-42 43 -42 103q0 58 42 102q43 43 103 43q59 0 102 -43t43 -102z" />
<glyph unicode="&#x2000;" horiz-adv-x="862" />
<glyph unicode="&#x2001;" horiz-adv-x="1724" />
<glyph unicode="&#x2002;" horiz-adv-x="862" />
<glyph unicode="&#x2003;" horiz-adv-x="1724" />
<glyph unicode="&#x2004;" horiz-adv-x="574" />
<glyph unicode="&#x2005;" horiz-adv-x="431" />
<glyph unicode="&#x2006;" horiz-adv-x="287" />
<glyph unicode="&#x2007;" horiz-adv-x="287" />
<glyph unicode="&#x2008;" horiz-adv-x="215" />
<glyph unicode="&#x2009;" horiz-adv-x="344" />
<glyph unicode="&#x200a;" horiz-adv-x="95" />
<glyph unicode="&#x2010;" horiz-adv-x="853" d="M154 597v171h546v-171h-546z" />
<glyph unicode="&#x2011;" horiz-adv-x="853" d="M154 597v171h546v-171h-546z" />
<glyph unicode="&#x202f;" horiz-adv-x="344" />
<glyph unicode="&#x205f;" horiz-adv-x="431" />
</font>
</defs>
</svg>
